<svg xmlns="http://www.w3.org/2000/svg" viewBox="0 0 512 512">
  <defs>
    <radialGradient id="bg" cx="35%" cy="28%" r="80%"><stop stop-color="#123d68"/><stop offset="1" stop-color="#020714"/></radialGradient>
    <linearGradient id="planet" x1="0" y1="0" x2="1" y2="1"><stop stop-color="#81fff0"/><stop offset="1" stop-color="#24a6de"/></linearGradient>
  </defs>
  <rect width="512" height="512" rx="112" fill="url(#bg)"/>
  <circle cx="256" cy="256" r="112" fill="url(#planet)"/>
  <path d="M181 213c35-32 63-7 85-18 25-13 44-9 67 11-12 16-22 27-43 29-30 3-34 18-32 45 2 24-11 43-35 53-6-29-26-38-43-52-18-16-20-45 1-68z" fill="#087a83" opacity=".9"/>
  <ellipse cx="256" cy="256" rx="202" ry="74" fill="none" stroke="#e8ffff" stroke-width="18" transform="rotate(-18 256 256)"/>
  <circle cx="424" cy="188" r="22" fill="#ffd56d"/>
  <path d="M105 361c45 49 100 74 166 73" fill="none" stroke="#65eaff" stroke-width="9" stroke-linecap="round" opacity=".7"/>
</svg>
